Coordinates
version=1
nRows=26
nColumns=24
inDegrees=yes

Units are S.I. units (second, meters, Newtons, ...)
Angles are in degrees.

endheader
time	pelvis_tilt	pelvis_list	pelvis_rotation	pelvis_tx	pelvis_ty	pelvis_tz	hip_flexion_r	hip_adduction_r	hip_rotation_r	knee_angle_r	ankle_angle_r	subtalar_angle_r	mtp_angle_r	hip_flexion_l	hip_adduction_l	hip_rotation_l	knee_angle_l	ankle_angle_l	subtalar_angle_l	mtp_angle_l	lumbar_extension	lumbar_bending	lumbar_rotation
      0.54200000	     -2.98220229	      1.85807155	      8.32720902	     -0.76053225	      0.89147618	      0.29619899	     27.99898669	     -2.22125716	    -10.33657229	     -2.69265327	      2.56849834	      0.14620123	      5.66486897	    -14.18025750	      1.91762025	      5.64864891	     -8.79297837	     14.75935668	      1.88217386	      9.80822958	     -4.34614263	     -3.75327063	    -10.24774155
      0.54616667	     -3.02884288	      1.82819562	      8.39789811	     -0.75474796	      0.89044816	      0.29648574	     28.12560620	     -2.14079207	    -10.01122310	     -3.13434470	      2.51602097	     -0.12923144	      5.60886708	    -14.16470616	      1.80208094	      5.58976455	     -9.52240724	     14.89003727	      2.13867492	      9.90450521	     -4.27444650	     -3.66195262	    -10.23171800
      0.55033333	     -3.04913297	      1.76824144	      8.45180891	     -0.74889778	      0.88947574	      0.29681622	     28.22291791	     -2.01533513	     -9.67901779	     -3.64389456	      2.43032289	     -0.46411786	      5.57119781	    -14.16517534	      1.64699358	      5.46831928	    -10.28083204	     15.01943119	      2.47308476	     10.06018042	     -4.22733064	     -3.52926863	    -10.18175190
      0.55450000	     -3.06647572	      1.70840753	      8.49959359	     -0.74302466	      0.88853952	      0.29715469	     28.33043802	     -1.88740762	     -9.34396970	     -4.24891028	      2.35965870	     -0.81907994	      5.56528642	    -14.16217723	      1.49920676	      5.40833934	    -11.05652575	     15.13708372	      2.69300232	     10.19736747	     -4.18235734	     -3.38549674	    -10.13132809
      0.55866667	     -3.04515264	      1.60180045	      8.53806432	     -0.73705786	      0.88769789	      0.29753377	     28.37734609	     -1.69560550	     -9.04143678	     -4.85983555	      2.13487627	     -1.28345451	      5.58590221	    -14.14822012	      1.27694214	      5.13884467	    -11.92286815	     15.19113252	      3.18390220	     10.61105463	     -4.16061077	     -3.18050734	    -10.04646885
      0.56283333	     -3.05250801	      1.50458713	      8.56373399	     -0.73108815	      0.88683579	      0.29793430	     28.47697363	     -1.51159122	     -8.71555414	     -5.56115872	      1.90015868	     -1.80092732	      5.64669547	    -14.10616448	      1.07959458	      4.95058633	    -12.79308885	     15.20352821	      3.50385733	     11.12643479	     -4.10489786	     -2.99349452	     -9.94760968
      0.56700000	     -3.09883854	      1.43991488	      8.57560121	     -0.72511132	      0.88595938	      0.29832994	     28.66026381	     -1.36778052	     -8.41496531	     -6.39895518	      1.69572135	     -2.25303639	      5.67521079	    -14.03728753	      0.94399724	      4.89903201	    -13.63593063	     15.14534547	      3.59538353	     11.31602413	     -4.00688037	     -2.85534780	     -9.87271074
      0.57116667	     -3.12103143	      1.33470779	      8.57801992	     -0.71906466	      0.88515590	      0.29876341	     28.79534974	     -1.16593089	     -8.10285441	     -7.21055278	      1.36347416	     -2.83593736	      5.71874449	    -13.95107284	      0.75023414	      4.72289385	    -14.55878099	     15.05007115	      3.85416345	     11.57747467	     -3.91885358	     -2.65886766	     -9.74553287
      0.57533333	     -3.12990117	      1.22439548	      8.56522563	     -0.71297787	      0.88440306	      0.29922626	     28.91982519	     -0.94937358	     -7.80500574	     -8.05329714	      1.00098753	     -3.45236674	      5.77382853	    -13.86003976	      0.54737386	      4.49895677	    -15.52145317	     14.91467725	      4.12906753	     11.89005696	     -3.82776196	     -2.44684556	     -9.60628637
      0.57950000	     -3.08179996	      1.08137878	      8.56584717	     -0.70682537	      0.88377986	      0.29967989	     28.98555975	     -0.70463716	     -7.61961006	     -8.92349416	      0.59549391	     -3.96414685	      6.82053740	    -13.79806104	      0.27723779	      4.17161998	    -16.52028949	     14.68613233	      4.52996800	     17.36410126	     -3.81452243	     -2.19558553	     -9.53666505
      0.58366667	     -3.11031462	      0.97267824	      8.52069049	     -0.70069087	      0.88309218	      0.30016802	     29.15572245	     -0.48286311	     -7.32760518	     -9.85054000	      0.18674056	     -4.55194822	      6.81169431	    -13.67126188	      0.10514257	      4.04305117	    -17.50933748	     14.38891087	      4.50424719	     17.41997637	     -3.70422407	     -1.98209299	     -9.34930891
      0.58783333	     -3.12010383	      0.85356106	      8.48442231	     -0.69453037	      0.88247568	      0.30067168	     29.30629621	     -0.25118072	     -7.07922280	    -10.79165696	     -0.25720532	     -5.15458459	      6.81000559	    -13.52302999	     -0.09820796	      3.83820398	    -18.56769033	     14.07414874	      4.67433103	     17.54351863	     -3.61250418	     -1.76030918	     -9.16629982
      0.59200000	     -3.12326078	      0.73270633	      8.43846475	     -0.68834441	      0.88191360	      0.30117640	     29.45697044	     -0.01911700	     -6.86329184	    -11.76136400	     -0.66579120	     -5.69794898	      6.81379943	    -13.35535171	     -0.30224614	      3.61742859	    -19.67506408	     13.70104195	      4.81414673	     17.70885694	     -3.51075715	     -1.52509251	     -8.99911409
      0.59616667	     -3.04113922	      0.54411519	      8.37634744	     -0.68206814	      0.88151922	      0.30175005	     29.49222900	      0.30793735	     -6.66757505	    -12.67666088	     -1.16364040	     -6.32044610	      6.86141732	    -13.25110447	     -0.61493059	      3.26015617	    -20.81755838	     13.34057241	      5.15827516	     18.58780567	     -3.52024082	     -1.19290635	     -8.77207189
      0.60033333	     -3.07589257	      0.45283823	      8.32816590	     -0.67591075	      0.88101026	      0.30225730	     29.70704774	      0.49431936	     -6.49505294	    -13.73567233	     -1.46907000	     -6.71106304	      7.07464648	    -12.98607356	     -0.77765423	      3.07008219	    -22.01567383	     12.78551508	      5.10329929	     22.91702414	     -3.41013256	     -1.01934349	     -8.67191746
      0.60450000	     -3.08881508	      0.34310909	      8.26845731	     -0.66968883	      0.88059908	      0.30276587	     29.88922426	      0.70219758	     -6.35483611	    -14.78708272	     -1.73645005	     -7.04524515	      7.06726189	    -12.74325671	     -0.95596603	      2.90443367	    -23.21463528	     12.15090800	      5.08367969	     22.95649444	     -3.30346907	     -0.79429826	     -8.51317144
      0.60866667	     -3.09236553	      0.22596848	      8.20450901	     -0.66347884	      0.88023600	      0.30330437	     30.06211984	      0.92020869	     -6.22143442	    -15.84529533	     -1.97577599	     -7.38906247	      7.05834296	    -12.46032395	     -1.15162565	      2.69352383	    -24.49648114	     11.53395189	      5.10525275	     23.04682346	     -3.21257676	     -0.56913957	     -8.33723737
      0.61283333	     -3.08664581	      0.10706318	      8.14179377	     -0.65728417	      0.87992160	      0.30386336	     30.22652118	      1.13731350	     -6.11628677	    -16.91016804	     -2.19252534	     -7.70548475	      7.04182725	    -12.14001995	     -1.36206595	      2.44064196	    -25.85491986	     10.93812377	      5.17763283	     23.26272753	     -3.14334528	     -0.35681906	     -8.12800477
      0.61700000	     -3.00632475	     -0.08434934	      8.05788317	     -0.65098319	      0.87977267	      0.30448215	     30.26761574	      1.45247407	     -6.02223569	    -17.88449434	     -2.36025915	     -7.98473009	      6.87386741	    -11.88190639	     -1.68723764	      2.05705965	    -27.21930405	     10.20199905	      5.35377205	     25.51910828	     -3.14025839	     -0.01142869	     -7.78250670
      0.62116667	     -3.00506244	     -0.18432841	      8.01158948	     -0.64478133	      0.87958308	      0.30499003	     30.42449838	      1.62807750	     -5.96833668	    -18.96443174	     -2.31973073	     -8.11799069	      6.86985136	    -11.52023579	     -1.86255517	      1.92846902	    -28.60197970	      9.31552870	      5.19544730	     25.60675831	     -3.05917242	      0.19447216	     -7.79579758
      0.62533333	     -3.00486391	     -0.28655527	      7.96020074	     -0.63861700	      0.87940115	      0.30552596	     30.58443065	      1.80033766	     -5.96020989	    -20.04477496	     -2.26818014	     -8.17399757	      6.85452106	    -11.09569130	     -2.06068900	      1.70487511	    -30.08716531	      8.50170336	      5.14514631	     25.80552738	     -2.97957353	      0.37872636	     -7.68195697
      0.62950000	     -2.95231883	     -0.41948655	      7.90690338	     -0.63239783	      0.87935708	      0.30607595	     30.65413622	      2.01299905	     -5.96488025	    -21.06721029	     -2.11001282	     -8.20130990	      6.43897751	    -10.71548109	     -2.30614065	      1.47740281	    -31.55778995	      7.53443697	      4.99495694	     29.51886010	     -2.95925671	      0.63319651	     -7.54340431
      0.63366667	     -2.87284231	     -0.58257784	      7.86436414	     -0.62617114	      0.87940581	      0.30663326	     30.65754700	      2.25727219	     -5.98886414	    -22.01181478	     -1.93727424	     -8.21940303	      6.44565247	    -10.32736153	     -2.60187243	      1.23728871	    -33.07595702	      6.53121188	      4.93970490	     29.53121594	     -2.96719828	      0.92986553	     -7.46689983
      0.63783333	     -2.82220866	     -0.72366660	      7.82386657	     -0.62000374	      0.87941708	      0.30719227	     30.69606832	      2.46259959	     -6.06022655	    -22.97140604	     -1.68808631	     -8.13806167	      6.44631103	     -9.85495644	     -2.88340020	      0.96162525	    -34.67192586	      5.56191858	      4.91094177	     29.58930180	     -2.93899071	      1.16648129	     -7.35102879
      0.64200000	     -2.72562260	     -0.88941469	      7.78963679	     -0.61382069	      0.87956773	      0.30775210	     30.63831515	      2.70393017	     -6.12228766	    -23.84037768	     -1.38842415	     -8.08562034	      6.44722695	     -9.42155621	     -3.19550620	      0.73355724	    -36.24897903	      4.47154319	      4.78850500	     29.63317565	     -2.97442409	      1.46454550	     -7.27275143
      0.64616667	     -2.64962491	     -1.03819482	      7.75903622	     -0.60768487	      0.87969899	      0.30830110	     30.59461701	      2.90930206	     -6.24312153	    -24.70063981	     -1.02474271	     -7.90362216	      6.43942821	     -8.92000172	     -3.50135764	      0.47069258	    -37.88427487	      3.39136022	      4.67373406	     29.71843229	     -2.97422072	      1.71045507	     -7.17997920
